<?xml version="1.0" encoding="iso-8859-1"?>
<!-- Generator: Adobe Illustrator 18.1.1, SVG Export Plug-In . SVG Version: 6.00 Build 0)  -->
<svg version="1.1" id="Capa_1" xmlns="http://www.w3.org/2000/svg" xmlns:xlink="http://www.w3.org/1999/xlink" x="0px" y="0px"
	 viewBox="0 0 326.883 326.883" style="enable-background:new 0 0 326.883 326.883;" xml:space="preserve">
<g>
	<g>
		<path style="fill:#010002;" d="M263.998,61.196H62.879v33.916h201.119V61.196z M87.17,85.637H72.199V70.666H87.17V85.637z
			 M109.623,85.637H94.652V70.666h14.971V85.637z M132.083,85.637h-14.971V70.666h14.971V85.637z"/>
		<path style="fill:#010002;" d="M263.998,136.051H62.879v33.916h201.119V136.051z M87.17,160.485H72.199V145.52H87.17V160.485z
			 M109.623,160.485H94.652V145.52h14.971V160.485z M132.083,160.485h-14.971V145.52h14.971V160.485z"/>
		<path style="fill:#010002;" d="M8.222,0v231.163h310.438V0H8.222z M275.932,181.9H50.945v-57.783h224.987V181.9z M275.932,107.046
			H50.945V49.262h224.987V107.046z"/>
		<path style="fill:#010002;" d="M207.564,258.264h-88.244v28.343H14.189v11.934h105.13v28.343h88.244V298.54h105.13v-11.934
			h-105.13V258.264z M195.63,314.949h-64.377v-44.752h64.377V314.949z"/>
	</g>
</g>
<g>
</g>
<g>
</g>
<g>
</g>
<g>
</g>
<g>
</g>
<g>
</g>
<g>
</g>
<g>
</g>
<g>
</g>
<g>
</g>
<g>
</g>
<g>
</g>
<g>
</g>
<g>
</g>
<g>
</g>
</svg>
